<svg xmlns="http://www.w3.org/2000/svg" viewBox="0 0 586.2 586.2"><g id="Layer_2" data-name="Layer 2"><g id="Capa_1" data-name="Capa 1"><path d="M117.11,491.82l-4.49-4.47,13.14-13.2L112.53,461,99.38,474.14l-4.49-4.48,29.51-29.61,4.51,4.49-12.14,12.17L130,469.91l12.14-12.18,4.49,4.49Z"/><path d="M170.93,505.17c-3.46,5.09-7.29,8.49-11.5,10.15q-7.41,3-14.8-2c-4.9-3.31-7.39-7.64-7.43-13,0-4.53,1.7-9.36,5.13-14.45s7.27-8.48,11.5-10.16c5-1.95,9.92-1.26,14.8,2.05s7.42,7.66,7.43,13Q176.08,497.54,170.93,505.17Zm-5.27-3.56q8.52-12.6-.51-18.71t-17.55,6.51q-8.53,12.61.51,18.7T165.66,501.61Z"/><path d="M207.81,531.62a11.44,11.44,0,0,1-8.2,6.89,16.89,16.89,0,0,1-11-1.1q-13.35-5.77-10.18-19.35l6.21,1.51c-.66,3.07-.49,5.54.55,7.41s3,3.45,5.9,4.71a11.19,11.19,0,0,0,6.11.95,5.82,5.82,0,0,0,4.8-3.55q1.62-3.74-3.4-8-4.74-3.86-9.39-7.72c-3.1-3.42-3.78-7.09-2.09-11a9.74,9.74,0,0,1,7.46-6.1,16.76,16.76,0,0,1,9.9,1.4c3.67,1.58,6.29,3.57,7.87,5.94a18.25,18.25,0,0,1,2.6,9.55l-6.33.13a14,14,0,0,0-1.52-6.27c-.83-1.32-2.53-2.52-5.09-3.63q-7.08-3.08-9.07,1.49-1.28,3,3.83,7c5.43,4.34,8.52,7,9.28,8A10.65,10.65,0,0,1,207.81,531.62Z"/><path d="M255.91,526.18q-1.42,6.12-6.11,8.35-4.28,2-10.59.57l-9.62-2.23-3.86,16.71-6.19-1.44L229,507.4,244.48,511c4.28,1,7.41,2.66,9.42,5Q257.33,520,255.91,526.18Zm-6.18-1.44c.54-2.37.13-4.19-1.26-5.45a12,12,0,0,0-5.38-2.28l-9.33-2.17-2.86,12.32,9.35,2.16Q248.23,531.17,249.73,524.74Z"/><path d="M271.75,557.27l-6.5-.6L269.08,515l6.51.6Z"/><path d="M316.92,521.76l-12.51.44,1.23,35.61-6.35.22-1.23-35.61-12.51.44-.21-6.18,31.37-1.09Z"/><path d="M363.31,549.44l-6.71,1.31-6.83-10.64-15.87,3.1-2.34,12.42-6.72,1.3,8.3-44.21,5.88-1.14Zm-17.06-14.8-8.33-13-2.84,15.2Z"/><path d="M401.49,535.4l-23.64,9.09-15-39,5.88-2.25,12.77,33.27,17.79-6.83Z"/><path d="M420.17,525.72l-5.78,3.06-19.61-36.92,5.76-3.07Z"/><path d="M438.37,471.27l-10.23,7.24,20.61,29.09-5.18,3.67L423,482.18l-10.2,7.24-3.57-5,25.61-18.15Z"/><path d="M463.64,438l10,29.47,9.92,9.83L479,481.89,469,472l-29.48-9.65,5-5,21.25,7.06-7.14-21.31Z"/><path d="M95.2,188.58l-2.55,5.88L71,185.14,89.16,202.6l-2.11,4.9-25.17-1.24,21.69,9.33L81,221.49,42.62,205l2.32-5.4L79,201.17,54.44,177.49l2.34-5.44Z"/><path d="M118,154.14,102.17,177,67.8,153.16l15.84-22.85,5.08,3.51L76.46,151.5l8.91,6.18,10.72-15.46,5.07,3.51L90.44,161.19l10.24,7.1,12.26-17.68ZM73.44,131.3l1.07,8.07-2.66,3.8-1.93-6.85Z"/><path d="M147.8,123l-5.23,5.19-16.29-4.66q-3.19-.9-5,.88l-3.53,3.49,12.46,12.54-4.5,4.47L96.26,115.31l10.64-10.56q4.45-4.44,9.15-5.15,5.27-.66,9.57,3.67a11.6,11.6,0,0,1,3.48,6.81,11,11,0,0,1-1.83,7.43ZM120.91,108q-4.23-4.24-9.67,1.16l-6.11,6.08,8.57,8.63,6.11-6.08Q125.26,112.34,120.91,108Z"/><path d="M162.27,112.4,157,116.32l-25-33.5,5.24-3.9Z"/><path d="M191,70.89a63.61,63.61,0,0,1,3.92,8.22q2.44,6.6-.55,11.29-2.4,3.75-9.09,7.37l-11.62,6.32-20-36.74L165.32,61c4.47-2.43,8.18-3.61,11.15-3.6,3.7,0,6.95,1.93,9.75,5.68A63.4,63.4,0,0,1,191,70.89Zm-5.58,3A60.82,60.82,0,0,0,181,66.56a6.25,6.25,0,0,0-4.84-2.78q-2.79-.11-7.9,2.68l-6,3.27,14,25.86,6.05-3.29c3.41-1.84,5.59-3.55,6.56-5.12a6.29,6.29,0,0,0,.29-5.61A58.43,58.43,0,0,0,185.41,73.92Z"/><path d="M244.11,74.56l-6.51,2.08-8-9.79-15.42,4.9-.89,12.61-6.51,2.08,3.15-44.89,5.72-1.81ZM225.48,61.82l-9.79-12-1.06,15.42Z"/><path d="M260.26,72.42,256.5,81l-2.06.33-2-11.87a3.32,3.32,0,0,1,.63-2.62,3.51,3.51,0,0,1,2.35-1.39,3.57,3.57,0,0,1,2.65.57,3.19,3.19,0,0,1,1.46,2.27Z"/><path d="M330.88,30.38l-16,26.7L313.79,71l-6.38-.5,1.08-14L296.78,27.73l7.05.56,8.36,20.78,11.64-19.23Z"/><path d="M372,65q-4.83,17.63-20,13.48T341.69,56.7l6.36-23.22,6.12,1.68-6.35,23.22c-1,3.75-1.24,6.64-.66,8.71.78,2.61,2.94,4.41,6.48,5.38S360,73,362,71.14c1.57-1.48,2.85-4.1,3.89-7.87l6.35-23.18,6.13,1.68Z"/><path d="M421,69.08l-6.18,1.41A26.22,26.22,0,0,0,413,65a9.25,9.25,0,0,0-4.13-3.85q-9.65-4.77-16.39,8.88t2.94,18.42a9,9,0,0,0,5.57.88,23.7,23.7,0,0,0,5.45-1.86L409,93.25a30,30,0,0,1-8.13,2.4A14.9,14.9,0,0,1,392.62,94q-7.9-3.9-9-11.8-.94-6.73,3.15-15t10-11.63q6.93-3.9,14.85,0a15,15,0,0,1,6.31,5.6A29.19,29.19,0,0,1,421,69.08Z"/><path d="M443.72,127.45l-5.43-4.14,3.4-12.17-12.86-9.8L418,107.85l-5.42-4.14L451.1,80.5l4.77,3.64Zm-.27-22.57L447.64,90,434.4,98Z"/><path d="M492.17,127.17l-8.58-9.11-25.95,24.45-4.36-4.62,26-24.46-8.59-9.11,4.49-4.22,21.53,22.84Z"/><path d="M489.33,185.2l-3.81-5.66,7.15-10.43-9-13.42-12.36,2.66-3.8-5.68,44-9.52,3.34,5Zm7-21.45L505.13,151,490,154.3Zm27.55-16.13L516,145.75l-2.6-3.84,7.08.63Z"/><path d="M504.88,221.35,502.66,216l19.87-27.54-26.7,11.11-2.44-5.86L532,177.64l2.22,5.37-19.86,27.58,26.72-11.1,2.41,5.81Z"/><path d="M139.12,316.08H123.36V292.4h15.76v3.5H126.93v6.38h10.65v3.24H126.93v7.07h12.19Z"/><path d="M160.82,309.12a6.48,6.48,0,0,1-2.71,5.44,9.56,9.56,0,0,1-6,1.9c-5.5,0-8.7-2.6-9.64-7.78l3.57-.61a6,6,0,0,0,1.95,3.74,6.58,6.58,0,0,0,4.12,1.11,6.39,6.39,0,0,0,3.4-.87,3.28,3.28,0,0,0,1.69-2.93q0-2.3-3.55-3.39l-6.63-1.9a5.46,5.46,0,0,1-3.55-5.25,5.58,5.58,0,0,1,2.5-4.86,9.59,9.59,0,0,1,5.47-1.49,9.85,9.85,0,0,1,5.43,1.32,10.34,10.34,0,0,1,3.49,4.38l-3.26,1.49a8.24,8.24,0,0,0-2.19-2.92,6.29,6.29,0,0,0-3.47-.75c-2.93,0-4.37.94-4.37,2.83,0,1.21,1.18,2.15,3.55,2.78a47.34,47.34,0,0,1,6.63,2.07A6,6,0,0,1,160.82,309.12Z"/><path d="M180.64,295.9h-7.1v20.18H170V295.9h-7.1v-3.5h17.79Z"/><path d="M187.67,314.05a2.19,2.19,0,0,1-.69,1.62,2.32,2.32,0,0,1-4-1.62,2.27,2.27,0,0,1,.67-1.64,2.35,2.35,0,0,1,3.29,0A2.25,2.25,0,0,1,187.67,314.05Z"/><path d="M409.86,316.08H394.08v-2.75a18.94,18.94,0,0,1,6.35-8.58c1.15-.76,2.29-1.54,3.42-2.31a4.32,4.32,0,0,0,1.93-3.4,3.22,3.22,0,0,0-1.29-2.67,4.54,4.54,0,0,0-2.91-.92c-2,0-3.48,1.09-4.41,3.26l-3.06-1.39c1.49-3.47,4-5.19,7.47-5.19A8.15,8.15,0,0,1,407,294a6.42,6.42,0,0,1,2.27,5.14,6.91,6.91,0,0,1-1,3.79,9.62,9.62,0,0,1-2.52,2.31c-1.07.73-2.12,1.46-3.19,2.21a14.79,14.79,0,0,0-4.44,5.32h11.74Z"/><path d="M430.15,304.24a17.19,17.19,0,0,1-1.64,8,7.07,7.07,0,0,1-6.72,4.1,7.15,7.15,0,0,1-6.75-4.1,20.32,20.32,0,0,1,0-16,7.16,7.16,0,0,1,6.75-4,7.08,7.08,0,0,1,6.72,4A17.06,17.06,0,0,1,430.15,304.24Zm-3.44,0q0-8.72-4.92-8.72t-4.91,8.72q0,8.79,4.91,8.79T426.71,304.24Z"/><path d="M442.3,316.08h-3.57v-19l-3.29,2.18-1.73-2.75,6.48-4.14h2.11Z"/><path d="M465.47,310.35h-2.21v5.73h-3.45v-5.73H448.57v-2.62l10-15.33h3.87l-9.61,14.69h6.94v-7.43l3.45.51v6.92h2.21Z"/><path d="M293.09,573.27c-154.49,0-280.18-125.69-280.18-280.18S138.6,12.93,293.09,12.93,573.27,138.62,573.27,293.09,447.58,573.27,293.09,573.27Zm0-555.84c-152,0-275.67,123.66-275.67,275.66S141.08,568.76,293.09,568.76,568.76,445.11,568.76,293.09,445.11,17.43,293.09,17.43Z"/><path d="M293.09,505.45C176,505.45,80.73,410.18,80.73,293.09S176,80.73,293.09,80.73,505.45,176,505.45,293.09,410.18,505.45,293.09,505.45Zm0-420.21c-114.62,0-207.85,93.23-207.85,207.85S178.47,501,293.09,501,501,407.71,501,293.09,407.71,85.24,293.09,85.24Z"/><path d="M293.09,492.54c-110,0-199.43-89.48-199.43-199.45S183.12,93.66,293.09,93.66s199.43,89.46,199.43,199.43S403.06,492.54,293.09,492.54Zm0-394.37c-107.48,0-194.92,87.44-194.92,194.92S185.61,488,293.09,488,488,400.59,488,293.09,400.57,98.17,293.09,98.17Z"/><path d="M215,414.25q-8.65,9.54-16.84,11.57-11.62,3-20.78-5.34t-7.28-20.17q1.24-8.34,9.9-17.86t16.85-11.57q11.67-2.94,20.77,5.34c6.09,5.55,8.54,12.27,7.29,20.17Q223.68,404.73,215,414.25Zm-5.44-4.95q7.26-7.95,8.13-14.17A15.55,15.55,0,0,0,198.79,378q-6.07,1.47-13.34,9.45t-8.13,14.17c-.82,5.28.83,9.78,5,13.54a14.37,14.37,0,0,0,14,3.64Q202.36,417.22,209.57,409.3Z"/><path d="M260,462.41,227.09,452l17.67-55.57,6.93,2.19L236.2,447.3l26,8.25Z"/><path d="M295.21,464.49l-7.6-.14.93-58.31,7.61.14Z"/><path d="M349.68,393.51v61.38L343.4,457,307,407.49l7.3-2.38,28,38.13,0-47.3Z"/><path d="M426.91,403.28,421,408.57l-16.16-8.2-17.95,16,6.38,16.93-5.92,5.28-21.82-58.7,5.54-5Zm-28.75-6.36-22.79-11.47,8.9,23.87Z"/><path d="M189.25,187.83,214.57,207l-4,5.28-4.81-3.62a13.68,13.68,0,0,1,.77,8,20.3,20.3,0,0,1-3.76,7.21q-7.23,9.62-18.38,8.85-9.41-.71-19.48-8.29c-6.82-5.12-11.26-10.65-13.37-16.56q-3.67-10.51,3.64-20.26a20.73,20.73,0,0,1,8.81-7,34.8,34.8,0,0,1,11.17-2l.31,7.24a29.57,29.57,0,0,0-8.06,1.26A13.9,13.9,0,0,0,161,192q-9.73,12.94,8.34,26.57t27.64.94q4.27-5.69,1.61-11.86-2.08-5-8.22-9.64l-8.69,11.54-5.62-4.23Z"/><path d="M262.77,180l-7.34,3.63L234.68,170c-2.66-1.73-5.15-2-7.45-.9l-6.8,3.38,11.34,22.92-6.45,3.19-25.86-52.29,18.21-9q7.79-3.87,13.94-2.71,6.9,1.33,10.61,8.82a16.74,16.74,0,0,1,1.48,11.2,15,15,0,0,1-6.16,9.31,24.93,24.93,0,0,1,2.34,1.15Zm-27-33.45q-4.12-8.31-15-2.94l-11.76,5.82,8.6,17.38,12-5.94Q240.28,155.66,235.79,146.59Z"/><path d="M314.59,153.8q0,25.23-21.51,25.2t-21.44-25.26l0-33.84H279L279,153.74q0,8.69,2.58,12.8c2.16,3.57,6,5.35,11.52,5.35s9.39-1.77,11.61-5.32c1.69-2.74,2.52-7,2.53-12.78l0-33.85,7.35,0Z"/><path d="M381.87,162.34q-4.22,8.63-12.43,9.45c-3.51.34-7.74-.72-12.7-3.15l-13.06-6.37-11,22.43-6.61-3.23,25.62-52.39,19.68,9.63c4.94,2.41,8.36,5.12,10.26,8.08Q386.05,153.8,381.87,162.34Zm-6.6-3.23q2.42-5,.18-8.56-1.67-2.67-7.21-5.39l-13.06-6.39-8.34,17,13.06,6.4q5.55,2.72,8.73,2.31Q372.8,164.14,375.27,159.11Z"/><path d="M421.36,224.32q-10.23,7.81-18.65,8.35-12,.84-19.48-9t-3.54-21.15q2.74-8,13-15.79t18.63-8.35q12-.78,19.48,9t3.56,21.16Q431.59,216.51,421.36,224.32Zm-4.46-5.85q8.57-6.53,10.55-12.47a15.57,15.57,0,0,0-15.51-20.32q-6.26.36-14.82,6.91t-10.56,12.47A14.43,14.43,0,0,0,389,219.28c3.4,4.41,7.74,6.46,13.08,6.1Q408.4,225,416.9,218.47Z"/><path d="M293.09,586.2C131.48,586.2,0,454.7,0,293.09S131.48,0,293.09,0,586.2,131.48,586.2,293.09,454.7,586.2,293.09,586.2Zm0-581.7C134,4.5,4.5,134,4.5,293.09S134,581.69,293.09,581.69s288.6-129.46,288.6-288.6S452.23,4.5,293.09,4.5Z"/><path d="M494.54,432.52a2.3,2.3,0,0,1-1.27-.4,2.26,2.26,0,0,1-.59-3.13A242,242,0,0,0,526.6,231.46a2.26,2.26,0,0,1,1.61-2.75,2.31,2.31,0,0,1,2.75,1.61A246.49,246.49,0,0,1,496.4,431.54,2.3,2.3,0,0,1,494.54,432.52Z"/><path d="M91,431.61a2.21,2.21,0,0,1-1.85-1A246.55,246.55,0,0,1,54.49,233.24a2.25,2.25,0,0,1,4.36,1.09,242.32,242.32,0,0,0,34,193.77,2.23,2.23,0,0,1-.6,3.11A2.17,2.17,0,0,1,91,431.61Z"/></g></g></svg>