<svg xmlns="http://www.w3.org/2000/svg" viewBox="0 0 540 140.87"><g id="Layer_2" data-name="Layer 2"><g id="Capa_1" data-name="Capa 1"><path d="M265.07,0h13.3V140.87h-13.3Z"/><path d="M411.72,0a10.61,10.61,0,0,1,.59,9.41h0l-45.4,107.28L317.53,0H302.61l59.6,140.85h1.6L423.41,0Z"/><path d="M230.94,131.29c-3.49,2.64-7.42,3.05-10.9,3H185V0h-13.3V140.87h61.77V129.34Z"/><path d="M139.33,37.56c-.68-1.24-1.34-2.5-2.1-3.69l-1.1-1.81-1.19-1.76a78,78,0,0,0-5.19-6.65,72.61,72.61,0,0,0-12.47-11.18A68,68,0,0,0,102.71,4.6,64,64,0,0,0,86.87.54,65.65,65.65,0,0,0,70.78.45,64.11,64.11,0,0,0,55.44,4.28,68.25,68.25,0,0,1,85.91,5.42,63.13,63.13,0,0,1,99.72,11a64.32,64.32,0,0,1,12,8.48,68.87,68.87,0,0,1,9.7,10.8,69.24,69.24,0,0,1,3.85,6.09l.89,1.56.81,1.6c.56,1,1,2.16,1.51,3.24a66.39,66.39,0,0,1,4.26,13.55l.35,1.73.27,1.75c.22,1.16.32,2.34.46,3.51s.17,2.35.26,3.52l.11,3.55c0,35.67-27.06,63.87-60.44,63.87S13.3,106.1,13.3,70.43a62.52,62.52,0,0,1,4.37-21.91,56.92,56.92,0,0,1,5.22-10.07,58.52,58.52,0,0,1,7.18-9A55.77,55.77,0,0,1,49.55,16.55a60.24,60.24,0,0,1,24.21-4A51.67,51.67,0,0,0,48,11,57.18,57.18,0,0,0,23.56,22.09a62,62,0,0,0-9.86,9.58A60.62,60.62,0,0,0,6.2,43.34,59.33,59.33,0,0,0,0,70.43c0,39.33,33,70.42,73.74,70.42s73.74-31.09,73.75-70.42A70.64,70.64,0,0,0,139.33,37.56Z"/><path d="M480.4,0H465.48a17.7,17.7,0,0,1,0,13.81l-53.76,127h11.69a10.58,10.58,0,0,1-.58-9.41h0l17.22-40.7h63.83l21.2,50.11H540ZM442.83,84.2,472,15.34,501.1,84.2Z"/></g></g></svg>