<svg xmlns="http://www.w3.org/2000/svg" viewBox="0 0 623.62 290.3"><g id="Layer_2" data-name="Layer 2"><g id="Capa_1" data-name="Capa 1"><path d="M267.85,62.84a26.74,26.74,0,0,0,5.36-7.92,19.81,19.81,0,0,0,1.83-7.7c0-3.95-1-6.8-3.07-8.47s-5.14-2.49-9.27-2.49h-.27l.14,1.66h.23a8.77,8.77,0,0,1,6,2A7.34,7.34,0,0,1,271,45.66a20.71,20.71,0,0,1-1.93,8.53A29,29,0,0,1,263.94,62a27,27,0,0,1-7.54,5.65,19.86,19.86,0,0,1-9,2.16,11.22,11.22,0,0,1-5.53-1.28,10.84,10.84,0,0,1-3.72-3.43A15.59,15.59,0,0,1,236,60.22a22.14,22.14,0,0,1-.68-5.4,39.16,39.16,0,0,1,2.33-13.17A57.45,57.45,0,0,1,244,29.23,73.83,73.83,0,0,1,263.28,9.51a55.22,55.22,0,0,1,10.63-5.77,26.07,26.07,0,0,1,9.55-2.08A11.15,11.15,0,0,1,289.38,3c1.41.89,2.12,2.67,2.12,5.3a14.67,14.67,0,0,1-1.39,6.23,19,19,0,0,1-3.61,5.24,17.6,17.6,0,0,1-4.9,3.56,12.18,12.18,0,0,1-5.25,1.29,13.77,13.77,0,0,1-3-.34,7.14,7.14,0,0,1-2.59-1.13,6,6,0,0,1-1.83-2.11,7,7,0,0,1-.7-3.29V16.62a6.24,6.24,0,0,1,.1-1.13l.05-.29h-1.67l0,.21a8.33,8.33,0,0,0-.1,1.41v1.27c.13,3,1.15,5.15,3,6.39a11.87,11.87,0,0,0,6.66,1.84,21,21,0,0,0,7.1-1.23,22.17,22.17,0,0,0,6.16-3.35,16.61,16.61,0,0,0,4.35-5.1,13.19,13.19,0,0,0,1.64-6.45c0-3.31-1.05-5.87-3.11-7.6S287.2,0,283.07,0A31.92,31.92,0,0,0,272,2.26a63.74,63.74,0,0,0-12,6.11,85.78,85.78,0,0,0-11.69,9.09,77.84,77.84,0,0,0-10,11.2,59.54,59.54,0,0,0-7,12.38,32.93,32.93,0,0,0-2.66,12.62,20.21,20.21,0,0,0,.94,5.77,16.91,16.91,0,0,0,3.11,5.79,17.29,17.29,0,0,0,5.69,4.44A19,19,0,0,0,247,71.45a28.27,28.27,0,0,0,12-2.46A29.21,29.21,0,0,0,267.85,62.84Z"/><path d="M355.73,59.8a15,15,0,0,0-.4,3.31,9.34,9.34,0,0,0,1.51,5.2c1,1.57,2.79,2.36,5.27,2.36a11,11,0,0,0,4.59-1.1,27.89,27.89,0,0,0,4.57-2.65,37.17,37.17,0,0,0,4.12-3.39c1.08-1,2-1.92,2.74-2.71l-.71,2.07a8.61,8.61,0,0,0-.45,2.75,5,5,0,0,0,1.39,3.54,5.64,5.64,0,0,0,4.32,1.49,13.41,13.41,0,0,0,7.45-2.73,53.49,53.49,0,0,0,7.83-6.7,100.61,100.61,0,0,0,7.48-8.65c2.36-3.08,4.45-6,6.19-8.64l.18-.27-1.07-.36-.11.16a116.06,116.06,0,0,1-7.38,9.92,95.24,95.24,0,0,1-7.58,8.17A46.56,46.56,0,0,1,388.83,67a10.3,10.3,0,0,1-5.08,2c-1.63,0-2.38-.72-2.38-2.28A11.48,11.48,0,0,1,382.9,62c1-2,2.41-4.4,4.13-7.09s3.67-5.62,5.89-8.81c2.07-3,4.33-6.21,6.92-9.84l.27-.39h-7L390,41.44a14.49,14.49,0,0,0-.75-2.12,7,7,0,0,0-4.09-3.68,10.17,10.17,0,0,0-3.5-.55A17,17,0,0,0,372.9,38a40.41,40.41,0,0,0-8.54,7.11,43.38,43.38,0,0,0-6.46,9.11,28.19,28.19,0,0,0-1.37,3c-1,1-2.1,2-3.2,3a46.4,46.4,0,0,1-8.88,6,28.08,28.08,0,0,1-8,2.77,12,12,0,0,0,1.49-.72A14.15,14.15,0,0,0,341,65.77a12.67,12.67,0,0,0,2.24-3.18,8.36,8.36,0,0,0,.85-3.67,14,14,0,0,0-.74-4.66c-.49-1.37-1-2.72-1.62-4a40.37,40.37,0,0,1-1.7-3.87,11.6,11.6,0,0,1-.71-4,6.22,6.22,0,0,1,1.31-4,4.84,4.84,0,0,1,4-1.61A4.26,4.26,0,0,1,347.94,38a4.36,4.36,0,0,1,1.16,3.09,9.88,9.88,0,0,1-.43,2.71,12.93,12.93,0,0,1-1,2.54l-.2.36h.41a8.2,8.2,0,0,0,4.37-1.2,4.3,4.3,0,0,0,2-3.92,5.55,5.55,0,0,0-2.54-4.74,11.12,11.12,0,0,0-6.48-1.74,13.51,13.51,0,0,0-4.17.64,11.39,11.39,0,0,0-3.53,1.84,8.91,8.91,0,0,0-2.46,3,8.59,8.59,0,0,0-.9,4v0c-2.12,3.11-4.36,6.08-6.67,8.86l-.58.69a5.19,5.19,0,0,0-1-.1,5.72,5.72,0,0,0-4.67,2.14,7.33,7.33,0,0,0-1.71,4.74c0,.34,0,.68,0,1A44.8,44.8,0,0,1,313.1,67,10.3,10.3,0,0,1,308,69c-1.62,0-2.38-.72-2.38-2.28A11.64,11.64,0,0,1,307.17,62c1-2,2.41-4.4,4.13-7.09s3.67-5.62,5.89-8.81c2.07-3,4.33-6.21,6.92-9.84l.27-.39h-6.95l-3.12,5.57a13.41,13.41,0,0,0-.75-2.12,7,7,0,0,0-4.09-3.68,10.15,10.15,0,0,0-3.49-.55A17,17,0,0,0,297.17,38a40.61,40.61,0,0,0-8.53,7.11,43.07,43.07,0,0,0-6.47,9.11,19.59,19.59,0,0,0-2.56,8.94,9.33,9.33,0,0,0,1.5,5.2c1,1.57,2.8,2.36,5.27,2.36a11,11,0,0,0,4.59-1.1,28,28,0,0,0,4.58-2.65,37,37,0,0,0,4.11-3.39c1.08-1,2-1.92,2.74-2.71l-.71,2.07a8.89,8.89,0,0,0-.44,2.75,5,5,0,0,0,1.38,3.54A5.65,5.65,0,0,0,307,70.67a13.41,13.41,0,0,0,7.45-2.73,49.16,49.16,0,0,0,5.48-4.42,8.19,8.19,0,0,0,.64,1.7A9,9,0,0,0,323,68.28a10.72,10.72,0,0,0,3.63,1.79,16.13,16.13,0,0,0,4.46.6,29.74,29.74,0,0,0,11.64-2.31,41.86,41.86,0,0,0,10.05-6C353.81,61.52,354.78,60.67,355.73,59.8ZM376,39.24a11.61,11.61,0,0,1,6.4-2.49,4,4,0,0,1,4.14,4.33,16.89,16.89,0,0,1-1.16,5.86,37,37,0,0,1-3,6.1,41.21,41.21,0,0,1-4.21,5.67,50.19,50.19,0,0,1-4.8,4.7,28,28,0,0,1-4.64,3.23c-2.88,1.56-5,1.6-6.17.07a5.4,5.4,0,0,1-.87-3.31,21.83,21.83,0,0,1,2.17-9.06,40.36,40.36,0,0,1,5.37-8.67A34.7,34.7,0,0,1,376,39.24ZM302.43,58.71a48,48,0,0,1-4.8,4.7A28,28,0,0,1,293,66.64c-2.88,1.56-5,1.6-6.17.07A5.4,5.4,0,0,1,286,63.4a21.83,21.83,0,0,1,2.17-9.06,40.4,40.4,0,0,1,5.38-8.67,34.15,34.15,0,0,1,6.77-6.43,11.56,11.56,0,0,1,6.39-2.49,4,4,0,0,1,4.14,4.33,16.66,16.66,0,0,1-1.16,5.86,35.48,35.48,0,0,1-3,6.1A40.41,40.41,0,0,1,302.43,58.71ZM334,68.21a7.16,7.16,0,0,1-3.44.79,10.15,10.15,0,0,1-5.66-1.66,5.46,5.46,0,0,1-2.47-4.91,6.29,6.29,0,0,1,.19-1.56c.49-.51,1-1,1.48-1.57a2.77,2.77,0,0,0,.59.77,2.65,2.65,0,0,0,1.88.66,2.6,2.6,0,0,0,2.25-1.08,4.27,4.27,0,0,0,.73-2.48,2.89,2.89,0,0,0-1-2.39,2.54,2.54,0,0,0-.34-.23c.52-.65,1-1.3,1.55-2,1.7-2.22,3.26-4.34,4.65-6.35a12.31,12.31,0,0,0,.52,1.9c.45,1.25.94,2.55,1.47,3.85s1,2.59,1.4,3.93a12.41,12.41,0,0,1,.63,3.78,13.27,13.27,0,0,1-.48,3.44,8.71,8.71,0,0,1-1.47,3A7.87,7.87,0,0,1,334,68.21Z"/><path d="M38.69,200.3l-16.3.73V137.75c0-10.71,1.1-15.33,4.87-23.37v-.24H0v.24c3.89,8,4.87,12.54,4.87,23.49v41.62C4.87,190.2,3.77,195.06,0,203v.24H60.84l5.72-25.92-1.09-.36C59.14,186.79,48.07,199.93,38.69,200.3Z"/><path d="M249.05,173l-1.1-.36c-9.36,17.88-18.13,29.81-34.19,29.81-19.47,0-28.84-17.4-28.84-43.32s7.91-44.3,29.33-44.3c13,0,20.92,6.94,33.22,24.1l1.09-.37-2.43-21a95.92,95.92,0,0,0-30.79-5.23c-28.84,0-49.65,20.68-49.65,46.85s19.72,45.88,47.95,45.88c17.16,0,30.42-6.94,33-8.89Z"/><path d="M352.68,203v.24h20.2V203C366.18,194.33,364,189.1,364,178l-.37-49.77,57.68,75.33,4.26-.37V139.33c0-11.56,2.19-16.06,8-25v-.24H414.38v.24c6.08,8.64,8.15,13.51,8.15,25.07l.24,38.22-48.19-63.53h-23v.24c6.33,6.09,8.64,9.62,9.25,17.89V178C360.83,189.47,358.88,194.21,352.68,203Z"/><path d="M484.68,113.65c-16.06,0-20.44.49-34.43.49v.24c3.76,7.3,4.86,11.44,4.86,21.18V181.8c0,9.62-1,14.12-4.86,21.18v.24h34.43c32.38,0,50.75-16.19,50.75-44.9S516.32,113.65,484.68,113.65Zm-.36,86.89H472.63v-84c3.41,0,7.91-.24,10-.24H484c22.76-.12,32.37,13.88,32.37,43.69C516.32,186.06,508.53,200.18,484.32,200.54Z"/><path d="M612.43,182.17l-25.68-68.76h-6.81l-25.19,67.78c-3.78,9.62-6.82,16.31-12.3,21.79v.24h19.23V203c-4.5-4.14-7.42-13-2.31-26.9l2.43-6.45H590l4.14,11.2c3.53,9.73,2.8,17.65-.24,22.15v.24h29.69V203C619.36,198.23,616.2,192.39,612.43,182.17ZM562.77,167l13.15-35.53L589.06,167Z"/><path d="M305.24,113.41h-6.81l-25.19,67.78c-3.78,9.62-6.82,16.31-12.29,21.79v.24h19.22V203c-4.5-4.14-7.42-13-2.31-26.9l2.44-6.45h28.23l4.14,11.2c3.52,9.73,2.79,17.65-.25,22.15v.24h29.69V203c-4.26-4.75-7.42-10.59-11.19-20.81Zm-24,53.54,13.14-35.53L307.55,167Z"/><path d="M123.25,200.3l-19.84.86V159.29h9c6.21,0,11.68,8.28,16.19,12.41h1.09l-7.06-11a5.06,5.06,0,0,1,0-5.49l7.06-11h-1.09c-4.63,4.63-10,12.42-16.19,12.42h-9V116.21l18.38,1c5.84.36,15.7,13.14,22.15,19.83l1.09-.36-4.62-22.52H81v.25c3.29,7.79,4.75,12.9,4.75,22.39v43.81c0,9.49-1.58,14.48-4.75,22.39v.24h64.74l5.72-25.92-1.09-.36C143.7,186.19,132.62,199.94,123.25,200.3Z"/><path d="M145.57,269.15a6.5,6.5,0,0,0,3.61-6.26c0-4.22-2.67-6.37-8-6.37-1.06,0-1.84,0-2.75.06-1.24,0-2.64.09-5.2.09H133v.24l0,.18a12.9,12.9,0,0,1,1.2,6.3v13.24a12.9,12.9,0,0,1-1.2,6.3l0,.42h8.23c5.77,0,9.07-2.75,9.07-7.54C150.33,272.37,148.65,270,145.57,269.15ZM138.23,258a8.24,8.24,0,0,1,2.48-.29c3,0,4.64,1.91,4.64,5.38,0,2.78-1,5.76-3.85,5.76h-3.27Zm2.61,24.13a8.7,8.7,0,0,1-2.61-.37v-11.7h3.54c2.8,0,4.4,2.15,4.4,5.91S144.22,282.15,140.84,282.15Z"/><path d="M170.16,256.13c-6.21,0-11.66,6.5-11.66,13.91s5.45,13.85,11.66,13.85c5.54,0,11.72-5.69,11.72-13.85C181.88,263.47,176.87,256.13,170.16,256.13Zm0,26.55c-4.64,0-7.31-4.6-7.31-12.64s2.67-12.7,7.31-12.7,7.37,4.75,7.37,12.7S174.84,282.68,170.16,282.68Z"/><path d="M204.49,256.67v.39l0,.07c1.73,2.4,2.13,3.69,2.13,6.9v10.13c0,2.51-.57,8.34-5.88,8.34-3.63,0-5.4-2.62-5.4-8V263.39a13.59,13.59,0,0,1,1.2-6.3l0-.42h-6.42v.24l0,.18a12.39,12.39,0,0,1,1.2,6.3v11.2c0,5.82,3.19,9.3,8.53,9.3,3.62,0,7.93-1.69,7.93-9.76V264c0-3.22.4-4.51,2.13-6.9l.18-.24-.42-.2Z"/><path d="M237.22,256.67h-19L217,264.43l.62.27.5-.85c1.38-2.33,3.44-5.85,4.53-5.94l3.05-.13v18.85a12.9,12.9,0,0,1-1.19,6.3l0,.42h6.41v-.24l0-.18a12.49,12.49,0,0,1-1.2-6.3V257.78l3.05.13c1,.08,2.64,2.83,4,5,.33.55.65,1.09,1,1.57l.11.18.62-.27-1.19-7.56Z"/><path d="M252.91,257.09l0-.42h-6.42v.24l0,.18a12.49,12.49,0,0,1,1.2,6.3v13.24a12.49,12.49,0,0,1-1.2,6.3l0,.42h6.42v-.24l0-.18a12.49,12.49,0,0,1-1.2-6.3V263.39A12.49,12.49,0,0,1,252.91,257.09Z"/><path d="M307.65,256.67v.39l.05.07c1.74,2.4,2.14,3.69,2.14,6.9v10.13c0,2.51-.58,8.34-5.88,8.34-3.63,0-5.4-2.62-5.4-8V263.39a13.68,13.68,0,0,1,1.19-6.3l0-.42h-6.41v.24l0,.18a12.49,12.49,0,0,1,1.19,6.3v11.2c0,5.82,3.19,9.3,8.53,9.3,3.62,0,7.93-1.69,7.93-9.76V264c0-3.21.4-4.5,2.13-6.9l.18-.24-.42-.2Z"/><path d="M379.56,257.09l0-.42h-6.41v.24l0,.18a12.49,12.49,0,0,1,1.19,6.3V269H364.29v-5.62a12.49,12.49,0,0,1,1.19-6.3l0-.42h-6.41v.24l0,.18a13,13,0,0,1,1.19,6.3v13.24a13,13,0,0,1-1.19,6.3l0,.42h6.41v-.24l0-.18a12.49,12.49,0,0,1-1.19-6.3v-6.41h10.09v6.41a12.49,12.49,0,0,1-1.19,6.3l0,.42h6.41v-.24l0-.18a12.49,12.49,0,0,1-1.2-6.3V263.39A12.49,12.49,0,0,1,379.56,257.09Z"/><path d="M400,256.13c-6.21,0-11.66,6.5-11.66,13.91s5.45,13.85,11.66,13.85c5.54,0,11.72-5.69,11.72-13.85C411.7,263.47,406.69,256.13,400,256.13Zm0,26.55c-4.64,0-7.31-4.6-7.31-12.64s2.67-12.7,7.31-12.7,7.37,4.75,7.37,12.7S404.67,282.68,400,282.68Z"/><path d="M438.93,256.67H420l-1.21,7.76.61.27.51-.85c1.37-2.33,3.44-5.85,4.53-5.94l3.05-.13v18.85a13,13,0,0,1-1.19,6.3l0,.42h6.41v-.24l0-.18a12.49,12.49,0,0,1-1.19-6.3V257.78l3,.13c1,.08,2.65,2.85,4,5.07.32.54.64,1.07.94,1.54l.11.18.61-.27L439,256.87Z"/><path d="M489.6,275.79c-2.3,4.13-4.44,6.27-6.35,6.36l-4.33.2v-19a12.39,12.39,0,0,1,1.2-6.3l0-.42h-6.41v.24l0,.18a13,13,0,0,1,1.19,6.3v13.24a13,13,0,0,1-1.19,6.3l0,.42h15.19l1.38-7.28,0-.2-.63-.27Z"/><path d="M285,283.85a4.8,4.8,0,0,1-1.92,2.34,6.92,6.92,0,0,1-3.42.73,21.52,21.52,0,0,1-4-.48c-1.45-.28-3.12-.65-5.11-1.11.34-.15.73-.33,1.16-.55s1-.48,1.38-.64a5.5,5.5,0,0,1,1.3-.31l.22,0v-.06C279.76,283,285,277.59,285,270c0-6.57-5-13.91-11.72-13.91-6.21,0-11.65,6.5-11.65,13.91,0,6.61,4.37,12.45,9.74,13.61l-.66.33a14.7,14.7,0,0,1-2.16,1,9.77,9.77,0,0,0-2.35-.3q-2,0-1.95,1c0,.66.57,1,1.7,1a7.24,7.24,0,0,0,2.61-.53l.25.09.41.13a41.08,41.08,0,0,1,3.77,1.78c1,.52,1.76.9,2.36,1.17a15.13,15.13,0,0,0,2,.7,7.83,7.83,0,0,0,2.1.29,5.81,5.81,0,0,0,4.43-1.74,10,10,0,0,0,2-4.34l0-.19-.89-.41ZM266,270c0-8.07,2.67-12.7,7.31-12.7s7.37,4.75,7.37,12.7-2.68,12.64-7.37,12.64S266,278.08,266,270Z"/><path d="M338.11,275.79c-1.33,2.16-3.81,6.17-6.33,6.29l-5.14.24V270.51H329c1.05,0,2.12,1.5,3,2.7.21.29.41.58.6.82l.07.09h.65v-8.58h-.65l-.07.09c-.24.32-.5.68-.76,1.06-.84,1.22-1.79,2.61-2.81,2.61h-2.36V257.71l4.86.24c.88.07,2.41,2.16,3.64,3.84.47.64.91,1.24,1.32,1.76l.12.14.59-.26L336,256.87l0-.2H321.44v.4a14.81,14.81,0,0,1,1.17,5.89v14.1a14.9,14.9,0,0,1-1.17,5.9v.4h16l1.37-7.29,0-.2-.62-.27Z"/><path d="M464.89,275.79c-1.33,2.16-3.82,6.17-6.33,6.29l-5.14.24V270.51h2.36c1.05,0,2.11,1.49,3,2.7.22.29.42.58.61.82l.07.09h.64v-8.58h-.64l-.07.09c-.24.31-.49.68-.75,1.05-.84,1.23-1.79,2.62-2.82,2.62h-2.36V257.71l4.86.24c.88.07,2.42,2.17,3.65,3.85.46.64.9,1.24,1.3,1.75l.12.14.6-.26-1.22-6.56,0-.2H448.22v.24l0,.16a15.09,15.09,0,0,1,1.17,5.89v14.1a15.22,15.22,0,0,1-1.17,5.9l0,.4h16l1.37-7.29,0-.2-.62-.27Z"/></g></g></svg>